<?xml version="1.0" encoding="utf-8"?>
<!-- Generator: Adobe Illustrator 18.1.1, SVG Export Plug-In . SVG Version: 6.00 Build 0)  -->
<svg version="1.1" id="Layer_1" xmlns="http://www.w3.org/2000/svg" xmlns:xlink="http://www.w3.org/1999/xlink" x="0px" y="0px"
	 viewBox="232 140 660 940" enable-background="new 232 140 660 940" xml:space="preserve">
<g id="tree">
	<path fill="#A86236" d="M649.2,752.5c2.3-3.9,0.5,0.9,0.1,5.1c-0.5,6.1-1.2,12.7-1.8,19c-1.5,16.9-0.7,32.5,0,49.5
		c1.2,33.9-2.5,70.6-5.6,104.4c-1.9,21-7.9,41.6-6.6,63.1c1.1,17.2,7.8,36,5,53.4c-37,8.9-81.6,5.4-120.2,3.4
		c-1.4-23.4,11.3-53.1,13.6-77.8c2.8-30.6,2.5-62,6.5-92.4c4.7-35.5-1.2-71.2,2.1-106.7c1.3-14.3-1.3-19.2,12-24.2
		c9.2-3.5,23.1,0.3,32.9-0.8c10.1-1.1,19.4-4.5,29.2-6.5"/>
	<path fill="#834F2C" d="M542,853.5c1.8,4.9-1,21.5,3.6,24.3c8.7,5.2,13.6-9.6,17.3-14.5c11.6-15.5,21-8.7,31.6-22.9
		c7.6-10.2,11.4-31.3,27.9-26.2c10.6,3.3,18.7,23.5,24.2,31c2.2-10.2-1.5-20.5-0.9-31c0.6-9.8,6.3-20.9,6.3-31.1
		c0.1-26.1-22-34.4-44.3-39c-24.4-5-48.6,9.3-61,29.1c-8.8,14-20,47.6-2.9,57.5"/>
	<path fill="#21684F" d="M818.7,645.4c0.4-2.5,2.2-3.5,1.1-6.5c0.2,21.2,17,42.8,26.3,60.9c10.5,20.4,23,40.1,31.9,61
		c6,14.2,10.8,34.1-5.1,44.6c-18.8,12.5-31.4-12-42-24.3c-10.8-12.6-29.1-35.9-44.7-20.3c-12.1,12.1-8.3,32.9-25.6,42.6
		c-35.6,20.1-42-65.4-76.6-19.5c-6.9,9.1-21,50.3-37,46.3c-11.2-2.8-13.5-31.7-22.9-39.2c-34.5-27.6-45.9,62.4-73.8,65.7
		c-19.5,2.3-23.7-32.5-40-39.9c-21.1-9.5-30.7,12.8-42.7,26.4c-37.4,42.5-35.8-37.6-68.4-40.2c-25.4-2-31.1,29-51.3,36.7
		c-27.5,10.6-11.1-18.4-20-30.7c-12.4-17.2-106.5,34.9-78.7-16.9c11.4-21.4,28-49.9,37.9-72.4c13.4-30.4,37.8-86.2,58.6-112.1
		c18.9-23.5,38.1,7.3,60.2-12.9c24.5-22.5,54.6-42.6,88.1-48.2c57.1-9.6,128,0.7,184.7,11.5c28.6,5.4,55.3,15.2,82.4,25.2
		c11.6,4.3,25.2,11.3,37.4,12.1"/>
	<path fill="#005743" d="M645.1,611c-44.4-7.4-163.5-36.5-202.3,7.7c-4.6-3.3-9.4-5.9-14.1-7.7c-19.6-7.2-49.3-9-68.1,1.2
		c-5.5,3-12,6.1-16.7,10.1c-2.7,2.3-4.3,5.7-6.5,8.5c-2.5,3.2-5.4,6.2-8,9.2c-5.6,6.6-10.3,17.3-12.6,25.6c-0.3,1.1-0.2,1-0.1,1.7
		l-9.2,18.5c2.4,5.8-5.2,16.5,7.5,13.2c8.8-2.3,17.1-9.5,25.1-13.8c8.3-4.5,14.8-7.1,18.1,3.2c2.8,8.8,11.1,17.6,25.2,17.8
		c20.3,0.3,22.9-28.2,47.2-24c21.3,3.6,11.5,31.1,36.1,29.5s31.1-27.9,52.5-26.2c21.3,1.6,1.6,32.8,39.4,23
		c11.7-3,32.3-29.4,45.9-29.6c15.1-0.2,18.3,19.9,29.5,26.2c30,17,39.9-24.3,68.7-19.7c14.5,2.3,20.2,10.5,33.9-1
		c5.9-4.9,21.7-35.7,33.6-30s22,33,40,48s22.9-11.9,22.9-11.9l-20.2-74.8l-107.4-11L645.1,611z"/>
	<path fill="#5DB552" d="M775.1,398.2c19.3,54.9,27.2,114.6,48.5,169.1c6.9,17.7,51.1,112.1-0.8,110.6c-23.7-0.7-29.3-37-46.2-47.9
		c-21.3-13.8-17.6,12.7-34,22.2c-19.5,11.3-23.8-6.7-38.9-13.9c-15.8-7.6-23.1,5.6-35.2,17.2c-14.6,13.9-21.7,25.6-36,8.5
		c-12.7-15.3-18.5-32.5-41.2-18.5c-14.1,8.8-20.3,30.5-34.6,37.3c-20.9,10-13.3-20-27-30.5c-28.3-21.7-40.7,47.8-66.5,16.4
		c-10.2-12.3-13.9-25-33.9-16.5c-13.5,5.8-23.2,23.4-38.9,25.1c-24.4,2.7-4.3-16.6-15-28.5c-9.7-10.8-85.4,57-80.9,3
		c3.3-39.3,102.7-180.1,122.6-212.3c31.9-51.5,69.2-91.2,127.4-112.7c57-21.1,136.2,18.4,186.5,42.5"/>
	<path fill="#53A957" d="M393.1,465.9c-2.1,11.5-25.6,41.8-7.7,48.6c15.9,6,30.7-26.6,47.3-25.3c4.3,18.6,3,28.5,25.7,26.5
		c16.9-1.5,31.4-20.8,52.6-17s2.5,35.3,24.5,31.7c12.1-2,27.9-13.4,37-18c15.3-7.6,25.8-6.5,35.1,3.2c12.6,13,16.1,28.7,35.4,17.2
		c16.3-9.7,15.9-41.8,35.7-43.6c11.3,30.3,17.9,58.6,45.3,37.9c15.7-11.9,29.6-22.5,47.5-16.7c16.5,5.3,25.1,7.7,29.6-15.5
		c8.2-42-23.3-66.3-56.1-84.1c-51.6-27.9-106-49.6-165.5-38.4c-31.2,5.8-60.1,9.2-90.3,19.9c-23,8.2-42.9,20.6-64.3,30.5"/>
	<path fill="#A8CD7F" d="M611.6,161.9c36.3-1.9,55.3,42.7,68,63c20.5,32.8,39.9,66.5,59.3,99.9c18.1,31.1,38.8,61.8,55.1,93.8
		c9.7,19,23.1,48.5,20.2,70.9c-7.6,59.3-49.2-33.9-63.2-28.1c-21.1,8.6-14.8,97.3-50.3,40.2c-10.2-16.3-14.2-37.7-30.7-19.4
		c-9.4,10.5-20.9,46-37.3,48.1c-21.5,2.6-14.2-44-28.4-51.3c-13.8-7-37.7,24.3-46.1,32.4c-39.1,38.3-12.9-61.1-51.5-33.5
		c-9.5,6.8-26.4,33.8-40.6,29.7c-18.5-5.3-7.1-38.5-10-50.9c-25.7,1.4-49.1,39.1-65.5,33.8c-16.5-5.3,15.3-58.5,25.7-75.9
		c18.3-30.4,34.1-62.1,52.6-92.6c18.1-29.7,35.2-60.1,55.6-88C543.5,208,575.4,163.8,611.6,161.9z"/>
	<g>
		<path fill="#834F2C" d="M620.8,823.5c0,0,13.6,18.4,1.3,39.4C622.1,863,615.5,835.3,620.8,823.5z"/>
		<path fill="#834F2C" d="M608.1,856.4c0,0,6.1,15.8,1.3,28.5C609.4,884.9,600.6,871.3,608.1,856.4z"/>
		<path fill="#834F2C" d="M626.5,875.2c0,0-12.3,16.2-2.6,29.8C623.9,905,633.5,887.9,626.5,875.2z"/>
		<path fill="#834F2C" d="M638.8,836.2c0,0-8.3,17.1-2.6,29.4C636.1,865.6,642.7,847.6,638.8,836.2z"/>
		<path fill="#834F2C" d="M592.7,880.9c0,0,13.6,18.4,1.3,39.4C594.1,920.4,587.5,892.8,592.7,880.9z"/>
		<path fill="#834F2C" d="M580,913.8c0,0,6.1,15.8,1.3,28.5C581.3,942.3,572.6,928.7,580,913.8z"/>
		<path fill="#834F2C" d="M598.4,932.6c0,0-12.3,16.2-2.6,29.8C595.8,962.4,605.5,945.3,598.4,932.6z"/>
		<path fill="#834F2C" d="M610.7,893.6c0,0-8.3,17.1-2.6,29.4C608.1,923,614.7,905,610.7,893.6z"/>
		<path fill="#834F2C" d="M627.4,912c0,0,13.6,18.4,1.3,39.4C628.7,951.5,622.1,923.9,627.4,912z"/>
		<path fill="#834F2C" d="M615.1,927.8c0,0,6.1,15.8,1.3,28.5C616.4,956.3,607.6,942.7,615.1,927.8z"/>
		<path fill="#834F2C" d="M606.8,958.9c0,0-12.3,16.2-2.6,29.8C604.1,988.7,613.8,971.6,606.8,958.9z"/>
		<path fill="#834F2C" d="M639.6,877.4c0,0-8.3,17.1-2.6,29.4C637,906.8,643.6,888.8,639.6,877.4z"/>
		<path fill="#834F2C" d="M624.7,960.2c0,0-8.3,17.1-2.6,29.4C622.1,989.6,628.7,971.6,624.7,960.2z"/>
	</g>
	<g>
		<path fill="#A86236" d="M731.1,556.2c8.5,17,116.4-21.6,133.4-25.5c1.7,2.5,3.8,8.3,3.9,11.2c-13,12.1-47.7,14.1-65.4,20
			c-12.5,4.2-64.2,11.2-65.9,27.4"/>
		<path fill="#834F2C" d="M859.7,535.3c-0.4-1.9,2-3.8,3.9-2.7c1.5,0.8,2.1,4.4,2.1,5.9c0,2.3-1.6,4.9-4,3c-1.7-1.3-2.3-3.4-2.1-5.4
			L859.7,535.3z"/>
	</g>
	<path fill="#5DB552" d="M458.3,391.9c-3.7,6.3,1.5,18.6,5.1,23.8c4.3,6.2,11.3,10.5,18.8,10.6c8.5,0.1,12.5,4.3,19.8-2.1
		c5.7-4.9,8.5-13.2,9.1-20.3c1.4-14.9-12.9-26.6-28-22"/>
	<circle fill="#834F2C" cx="484.6" cy="394.4" r="26.2"/>
	<circle fill="#A86236" cx="484.6" cy="394.4" r="21.2"/>
	<circle fill="#231F20" cx="484.6" cy="394.4" r="8.3"/>
	<circle fill="#F1F1F2" cx="491.2" cy="387.9" r="5.3"/>
	<path fill="#5DB552" d="M689.2,391.9c-3.7,6.3,1.5,18.6,5.1,23.8c4.3,6.2,11.3,10.5,18.8,10.6c8.5,0.1,12.5,4.3,19.8-2.1
		c5.7-4.9,8.5-13.2,9.1-20.3c1.4-14.9-12.9-26.6-28-22"/>
	<circle fill="#834F2C" cx="715.6" cy="394.4" r="26.2"/>
	<circle fill="#A86236" cx="715.6" cy="394.4" r="21.2"/>
	<circle fill="#231F20" cx="715.6" cy="394.4" r="8.3"/>
	<circle fill="#F1F1F2" cx="722.1" cy="387.9" r="5.3"/>
</g>
<g id="shroom" display="none">
	<path display="inline" fill="#EE3F31" d="M1029.8,676.6c20.5-102.3,127.3-191.1,224.5-191.1h28.3c97.2,0,185.3,83.7,217.7,191.1"/>
	<g display="inline">
		<path opacity="0.5" fill="#595A5A" enable-background="new    " d="M1129.2,572.6c-3.7,6.3,1.5,18.6,5.1,23.8
			c4.3,6.2,11.3,10.5,18.8,10.6c8.5,0.1,12.5,4.3,19.8-2.1c5.7-4.9,8.5-13.2,9.1-20.3c1.4-14.9-12.9-26.6-28-22"/>
		<circle fill="#6D2713" cx="1155.5" cy="575.2" r="26.2"/>
		<circle fill="#A86236" cx="1155.5" cy="575.2" r="21.2"/>
		<circle fill="#231F20" cx="1155.5" cy="575.2" r="8.3"/>
		<circle fill="#F1F1F2" cx="1162.1" cy="568.6" r="5.3"/>
		<path opacity="0.5" fill="#595A5A" enable-background="new    " d="M1360.1,572.6c-3.7,6.3,1.5,18.6,5.1,23.8
			c4.3,6.2,11.3,10.5,18.8,10.6c8.5,0.1,12.5,4.3,19.8-2.1c5.7-4.9,8.5-13.2,9.1-20.3c1.4-14.9-12.9-26.6-28-22"/>
		<circle fill="#6D2713" cx="1386.5" cy="575.2" r="26.2"/>
		<circle fill="#A86236" cx="1386.5" cy="575.2" r="21.2"/>
		<circle fill="#231F20" cx="1386.5" cy="575.2" r="8.3"/>
		<circle fill="#F1F1F2" cx="1393" cy="568.6" r="5.3"/>
	</g>
	<ellipse display="inline" fill="#C3996B" cx="1266.6" cy="682.1" rx="236.3" ry="53"/>
	<path display="inline" opacity="0.4" fill="#595A5A" enable-background="new    " d="M1278,691c0,0,39-19,67-12s49,13.2,78,8.2
		s32.5-8.3,39.8-14.2c7.4-5.9,0.5-13.6-14.9-4.9c-15.5,8.7-9.9,12.9-38.9,12.9s-42-11-73-11s-62,23-62,23"/>
	<path display="inline" opacity="0.4" fill="#595A5A" enable-background="new    " d="M1090,667c0,0,47,10,76,10s56,11,56,11v21
		c0,0-10-19-45-19s-81-5-95-13S1069,662,1090,667z"/>
	<g display="inline">
		<g>
			<ellipse id="SVGID_1_" fill="#E7E3D9" cx="1266.6" cy="682.1" rx="223" ry="50"/>
		</g>
		<g>
			<defs>
				<ellipse id="SVGID_2_" cx="1266.6" cy="682.1" rx="223" ry="50"/>
			</defs>
			<clipPath id="SVGID_4_">
				<use xlink:href="#SVGID_2_"  overflow="visible"/>
			</clipPath>
			<g clip-path="url(#SVGID_4_)">
				<path fill="none" stroke="#A7A39D" d="M1078,634.3c7.6,18.8,83.3,17.7,98.7,22c18.4,5.2,64.7,24.7,84.7,24.7"/>
				<path fill="none" stroke="#A7A39D" d="M1175.3,611.7c2.3,6.3,14.8,28.5,20.8,30.5c10.6,3.5,13.4,5.5,21.1,14.5
					c4.5,5.3,17.8,9.6,21.9,14.6c4,4.9,16.5,7.4,21,9.6"/>
				<path fill="none" stroke="#A7A39D" d="M1204,613.7c-1.9,10.9,24,32.4,30,39.3c4.3,5,17.5,10.8,20,16.8c2.3,5.4,1.5,11,7,13.9"/>
				<path fill="none" stroke="#A7A39D" d="M1227.3,613c-1.4,10.8,11,28,16.7,36c7.3,10.2,18.9,25.1,18.7,37.3"/>
				<path fill="none" stroke="#A7A39D" d="M1253.3,617c0,12.4,2.1,19.8,6.3,31.3c2.8,7.6,3.6,14.6,3.7,22.7c0,7.9,12,19.7,7.3,26.6"
					/>
				<path fill="none" stroke="#A7A39D" d="M1056,635.7c14.9-1.3,20.6,10.8,31.1,18c17.4,12.1,40,12,60.7,12c21.2,0,37,2.4,57.7,8.7
					c16.1,4.9,46.6,31.4,64.5,20"/>
				<path fill="none" stroke="#A7A39D" d="M1028.7,655c16.6,0,30.6,8.1,44.7,18c4.9,3.4,8.3,8.1,14.1,10.3c7.4,2.9,16,2.2,23.7,2.8
					c20.8,1.5,40.6-2.1,61.5-1.8c15.7,0.2,48.6-1.8,64.1,0.1c11.8,1.5,8.1,4.9,19.2,9.2"/>
				<path fill="none" stroke="#A7A39D" d="M1186.3,760.5c15.5-9.9,22.4-37.7,34.6-51c16.5-17.9,22.1-30.6,46.5-31.8"/>
				<path fill="none" stroke="#A7A39D" d="M1141.2,756.9c12.2,0.3,30.7-32,42.4-36c10.2-3.5,11.1-10.8,20-16.9
					c13-8.9,8.9-14,24.1-16.5c7-1.2,27.4-6.4,32.3-1.2"/>
				<path fill="none" stroke="#A7A39D" d="M1085.3,735.2c19-2.3,27.9-14.4,45.9-20.3c9.9-3.2,27.5,2.4,35.7-4.3
					c7.5-6.1,23.2-15,32.6-18.1c9.5-3.2,10.7-6.7,20.4-7.8c23.1-2.8,46.3,1.1,69.1-2.2"/>
				<path fill="none" stroke="#A7A39D" d="M1007.4,701.9c25-1.7,50.3-4.7,75.4-3.1c12.5,0.8,23.8,4.5,36.2,3.1
					c17-1.9,37.6-3.3,54.3-6.9c15.5-3.4,36.6-8.9,52.6-10.8c19.4-2.3,26.7-4.2,45.5-1c7.6,1.3,17,0.2,24.2,2.4"/>
				<path fill="none" stroke="#A7A39D" d="M1117.3,614.3c-1.3,11.2,18.1,20.4,26.7,23.3c12.8,4.4,25.2,6,37.6,11.9
					c9.8,4.7,20.6,7.6,30.1,12.7c16,8.6,31.8,21.7,51,22.7"/>
			</g>
		</g>
		<g>
			<defs>
				<ellipse id="SVGID_5_" cx="1266.6" cy="682.1" rx="223" ry="50"/>
			</defs>
			<clipPath id="SVGID_6_">
				<use xlink:href="#SVGID_5_"  overflow="visible"/>
			</clipPath>
			<g clip-path="url(#SVGID_6_)">
				<path fill="none" stroke="#A7A39D" d="M1457.7,634.3c-7.6,18.8-83.3,17.7-98.7,22c-18.4,5.2-64.7,24.7-84.7,24.7"/>
				<path fill="none" stroke="#A7A39D" d="M1360.3,611.7c-2.3,6.3-14.8,28.5-20.8,30.5c-10.6,3.5-19.2,5.1-26.9,14.1
					c-4.5,5.3-6.1,12.1-10.2,17.1c-4,4.9-9,4.1-13.4,6.3"/>
				<path fill="none" stroke="#A7A39D" d="M1331.7,613.7c1.9,10.9-24,32.4-30,39.3c-4.3,5-11.5,24-14,30c-2.3,5.4-11.1-0.2-16.7,2.7
					"/>
				<path fill="none" stroke="#A7A39D" d="M1304.3,622.3c1.4,10.8-10.3,18.6-16,26.6c-7.3,10.2-7.5,25.2-7.3,37.4"/>
				<path fill="none" stroke="#A7A39D" d="M1281.3,617c0,12.4-2.1,19.8-6.3,31.3c-2.8,7.6-3.6,14.6-3.7,22.7c0,7.9-2,19.7,2.7,26.6"
					/>
				<path fill="none" stroke="#A7A39D" d="M1479.7,635.7c-14.9-1.3-20.6,10.8-31.1,18c-17.4,12.1-40,12-60.7,12
					c-21.2,0-37,2.4-57.7,8.7c-16.1,4.9-46.6,31.4-64.5,20"/>
				<path fill="none" stroke="#A7A39D" d="M1507,655c-16.6,0-30.6,0.1-44.7,10c-4.9,3.4-8.3,8.1-14.1,10.3c-7.4,2.9-16,2.2-23.7,2.8
					c-20.8,1.5-40.6-2.1-61.5-1.8c-15.7,0.2-48.4-1.9-64,0c-11.8,1.5-8.2,13-19.3,17.3"/>
				<path fill="none" stroke="#A7A39D" d="M1363,743.7c-15.5-9.9-23.3-24.6-35.6-37.9c-16.5-17.9-34.7-26.9-59.1-28.1"/>
				<path fill="none" stroke="#A7A39D" d="M1413.7,726.3c-12.2,0.3-27.2-1-38.9-5c-10.2-3.5-18.2-14.3-27.1-20.4
					c-13-8.9-24.5-11-39.8-13.5c-7-1.2-27.4-6.4-32.3-1.2"/>
				<path fill="none" stroke="#A7A39D" d="M1455.7,715c-19.1-0.1-26.7-1.4-45.3-5.1c-10.2-2-29.7-3.9-38.7-9.6
					c-8.1-5.1-17.6-12-27.3-14c-9.8-2-18.6-5.4-28.4-5.4c-23.2,0-45.9,6.6-68.9,6.1"/>
				<path fill="none" stroke="#A7A39D" d="M1529,685c-25.1,0-50.5-1.3-75.4,1.9c-12.4,1.6-23.4,6-35.9,5.5
					c-17.1-0.7-37.7-0.8-54.7-3.3c-15.7-2.4-28.6-14.6-44.7-15.4c-19.5-1-35.5,5.6-54,10c-7.5,1.8-17,1.3-24,4"/>
				<path fill="none" stroke="#A7A39D" d="M1418.3,614.3c1.3,11.2-18.1,20.4-26.7,23.3c-12.8,4.4-25.2,6-37.6,11.9
					c-9.8,4.7-20.6,7.6-30.1,12.7c-16,8.6-29.8,27.7-49,28.7"/>
			</g>
		</g>
	</g>
	<path display="inline" fill="#E7E3D9" d="M1239,717.7c0,0-42.3-16.2-53.7-26.8c-7.9-7.5-13.2-35.2,24.1-39.6
		c15.9,7.7,36.2,14.3,65.1,15.9c36.7,2,43.3-11.4,56-18.7c13.8,3.6,33.8,34.7,31,41.9c-5.3,14-48.8,21.9-48.8,21.9L1239,717.7z"/>
	<g display="inline">
		<g>
			<g>
				<g>
					<path id="SVGID_3_" fill="#C3996B" d="M1215.8,691c-3.2-9.1,3.7-13.2,11.8-14.1c7.7-0.9,25.8-3.6,44.2-3.6
						c12.8,0,39.8-2.9,47.8-0.5c5.9,1.8,16.4,1.8,13,12.9c-3,9.9-17.7,54.3-7.7,112.3s54.2,120.5,31,125
						c-53.1,10.4-134.8,15.2-161,1c-28.3-15.4,22-92,29-131S1219,700.1,1215.8,691z"/>
				</g>
				<g>
					<defs>
						<path id="SVGID_7_" d="M1215.8,691c-3.2-9.1,3.7-13.2,11.8-14.1c7.7-0.9,25.8-3.6,44.2-3.6c12.8,0,39.8-2.9,47.8-0.5
							c5.9,1.8,16.4,1.8,13,12.9c-3,9.9-17.7,54.3-7.7,112.3s54.2,120.5,31,125c-53.1,10.4-134.8,15.2-161,1
							c-28.3-15.4,22-92,29-131S1219,700.1,1215.8,691z"/>
					</defs>
					<clipPath id="SVGID_8_">
						<use xlink:href="#SVGID_7_"  overflow="visible"/>
					</clipPath>
					<path opacity="0.5" clip-path="url(#SVGID_8_)" fill="#595A5A" enable-background="new    " d="M1211,769c0,0,18,0,21-24
						s4-61,37-62s46,6,46,28s15,66,15,66l44-92l-32-66l-157,24L1211,769z"/>
				</g>
			</g>
			<g opacity="0.5">
				<path fill="#595A5A" d="M1305,730.2c0,0,14.2,17.9,2.6,39.4C1307.6,769.5,1300.1,742.2,1305,730.2z"/>
				<path fill="#595A5A" d="M1305.4,784.4c0,0,6.7,15.6,2.3,28.4C1307.7,812.9,1298.4,799.6,1305.4,784.4z"/>
				<path fill="#595A5A" d="M1318.4,843.7c0,0-11.7,16.6-1.6,29.9C1316.8,873.5,1325.9,856.1,1318.4,843.7z"/>
				<path fill="#595A5A" d="M1315.4,759.3c0,0-7.7,17.4-1.6,29.4C1313.7,788.7,1319.7,770.5,1315.4,759.3z"/>
				<path fill="#595A5A" d="M1239.3,720.8c0,0,6.7,15.6,2.3,28.4C1241.6,749.2,1232.4,735.9,1239.3,720.8z"/>
				<path fill="#595A5A" d="M1236.3,752c0,0-11.7,16.6-1.6,29.9C1234.7,781.8,1243.8,764.4,1236.3,752z"/>
				<path fill="#595A5A" d="M1289.3,817.6c0,0-7.7,17.4-1.6,29.4C1287.6,847,1293.6,828.8,1289.3,817.6z"/>
				<path fill="#595A5A" d="M1323.5,832.7c0,0,18.8,13.1,13.9,36.9C1337.4,869.6,1322.3,845.6,1323.5,832.7z"/>
				<path fill="#595A5A" d="M1327.5,866c0,0-11.7,16.6-1.6,29.9C1325.9,895.8,1335,878.4,1327.5,866z"/>
				<path fill="#595A5A" d="M1317.6,800.4c0,0-7.7,17.4-1.6,29.4C1316,829.8,1322,811.7,1317.6,800.4z"/>
				<path fill="#595A5A" d="M1336.4,879.2c0,0-2.4,18.9,6.9,28.7C1343.4,907.9,1343.8,888.7,1336.4,879.2z"/>
			</g>
		</g>
	</g>
	<g display="inline">
		<g>
			<path fill="#6D2713" d="M1156.2,639.8c3.1-0.8,6.1-1.5,9.2-2.2s6.2-1.3,9.3-1.9c3.1-0.6,6.2-1.1,9.3-1.6c3.1-0.5,6.3-0.9,9.4-1.3
				l0.8-0.1l0.7,0.7c1.4,1.3,2.5,2.7,3.7,4c1.1,1.3,2.3,2.6,3.5,3.7c2.4,2.4,5,4.5,7.8,6.4s5.7,3.5,8.8,5c3.1,1.4,6.2,2.6,9.5,3.7
				c3.2,1,6.5,1.9,9.9,2.6c1.7,0.4,3.4,0.7,5,1c1.7,0.3,3.4,0.6,5.1,0.8s3.4,0.5,5.1,0.7s3.4,0.4,5.2,0.5c1.7,0.2,3.4,0.3,5.2,0.4
				l1.3,0.1h0.6h0.7l2.6,0.1c1.8,0.1,3.4,0.1,5.1,0.1c1.7,0.1,3.4-0.1,5.1-0.1c1.7-0.1,3.4-0.2,5.1-0.3c1.7-0.2,3.4-0.3,5.1-0.5
				l2.5-0.3l2.5-0.4c1.7-0.3,3.3-0.6,5-1c3.3-0.8,6.6-1.7,9.8-2.9c3.2-1.1,6.3-2.6,9.3-4.1c3-1.6,5.9-3.4,8.6-5.4
				c2.8-2,5.3-4.2,7.9-6.6c1.3-1.2,2.5-2.4,3.8-3.6c1.3-1.2,2.5-2.5,4.2-3.7l0.7-0.5l0.9,0.3c0.5,0.2,1.1,0.4,1.6,0.5
				c0.6,0.1,1.1,0.3,1.8,0.4c1.2,0.3,2.4,0.5,3.6,0.7c2.5,0.4,5,0.7,7.5,0.9l7.5,0.9c1.3,0.1,2.5,0.3,3.8,0.5s2.5,0.5,3.7,0.8
				c-1.3-0.2-2.5-0.2-3.8-0.3c-1.3,0-2.5,0-3.8,0c-2.5,0-5,0-7.6,0c-2.5,0-5.1-0.1-7.6-0.2c-1.3-0.1-2.6-0.2-3.9-0.3
				c-0.6-0.1-1.3-0.2-2-0.3s-1.3-0.3-2-0.5l1.5-0.2c-1.1,0.9-2.3,2.3-3.5,3.5c-1.2,1.3-2.4,2.6-3.6,3.9c-2.5,2.6-5.1,5.1-7.9,7.3
				c-2.8,2.3-5.8,4.3-9,6.2c-3.1,1.8-6.4,3.4-9.8,4.7s-6.8,2.4-10.3,3.4c-3.5,0.9-7.1,1.6-10.6,2.1c-1.8,0.3-3.6,0.4-5.4,0.6
				c-1.8,0.1-3.6,0.3-5.4,0.3s-3.6,0.1-5.4,0.1s-3.6,0-5.4-0.1l-2.6-0.1h-0.7l-0.7-0.1l-1.3-0.1c-1.8-0.1-3.5-0.3-5.3-0.5
				s-3.5-0.4-5.3-0.6c-1.8-0.2-3.5-0.5-5.3-0.7c-1.8-0.3-3.5-0.6-5.3-0.9c-1.8-0.4-3.5-0.7-5.3-1.1c-3.5-0.8-6.9-1.9-10.4-3
				c-6.8-2.4-13.5-5.5-19.3-9.9c-2.9-2.2-5.7-4.6-8.1-7.3c-1.2-1.3-2.4-2.7-3.5-4.1c-1.1-1.4-2.2-2.8-3.2-3.9l1.5,0.6
				c-3.1,0.1-6.2,0.3-9.4,0.5c-3.1,0.3-6.2,0.5-9.4,0.7l-9.4,0.9L1156.2,639.8z"/>
		</g>
	</g>
</g>
</svg>
