<?xml version="1.0" encoding="utf-8"?>
<!-- Generator: Adobe Illustrator 18.1.1, SVG Export Plug-In . SVG Version: 6.00 Build 0)  -->
<svg version="1.1" id="Layer_1" xmlns="http://www.w3.org/2000/svg" xmlns:xlink="http://www.w3.org/1999/xlink" x="0px" y="0px"
	 viewBox="1309.9 0 610.1 1080" enable-background="new 1309.9 0 610.1 1080" xml:space="preserve">
<g id="Layer_1_1_">
</g>
<g id="Scn_x5F_Searching_x5F_B_x5F_v1_xA0_Image">
	<path fill="none" stroke="#FFFFFF" stroke-width="5" stroke-linecap="round" stroke-linejoin="round" stroke-miterlimit="10" d="
		M1366,1051c12-26,30-66.4,37.1-109.9c0,0,88-287,97-320s28-48,28-96s0-212,6-233s31-45,31-45s0,21-4,42c0,0,7-61,10-74s1-18,8-25
		s37-36,45-49s23-29,33-22s8.2,20.9-6.4,43.4c-10.5,16.3-19.5,23-22.6,37.6c-3.1,14.7-2.8,20.9-2.8,30.9s3.8,19.1,3.8,19.1
		s18-24,25-51s7-47,12-62s35-46,44-70s17-46,26-53s15-11,23,0s3,36-6,57s-12,34-17,48s-19,39-28,64s-20,70-15,77s27-31,32-45
		s9-27,18-47s29-45,37-62s24-52,31-60s20-15,28-10s-4,33-5,53s-28,65-29,76s-4,26-21,59s-32,64-32,92s-3,53,18,60s62-42,68-58
		s21-53,33-55s16-7,16-7s16-3,17,6s-15,34-15,34s8,19-1,51s-33,58-53,91s-46,68-55,95s-33,31-57,53s-48,102-57,143
		s-44.4,332.1-44.4,332.1"/>
	<path fill="none" stroke="#FFFFFF" stroke-width="5" stroke-linecap="round" stroke-linejoin="round" stroke-miterlimit="10" d="
		M1716.8,72.7c0,0,3.5,3.5,13.3,4"/>
	<path fill="none" stroke="#FFFFFF" stroke-width="5" stroke-linecap="round" stroke-linejoin="round" stroke-miterlimit="10" d="
		M1790,107.8c0,0,8.4,3,13.8,4"/>
	<path fill="none" stroke="#FFFFFF" stroke-width="5" stroke-linecap="round" stroke-linejoin="round" stroke-miterlimit="10" d="
		M1758.3,169.6c0,0,18.8,1.5,26.2,11.4"/>
	<path fill="none" stroke="#FFFFFF" stroke-width="5" stroke-linecap="round" stroke-linejoin="round" stroke-miterlimit="10" d="
		M1771.2,163.6c0,0,8.9-0.5,11.9,4"/>
	<path fill="none" stroke="#FFFFFF" stroke-width="5" stroke-linecap="round" stroke-linejoin="round" stroke-miterlimit="10" d="
		M1762.3,181.9c0,0,8.4,4,11.4,3"/>
	<path fill="none" stroke="#FFFFFF" stroke-width="5" stroke-linecap="round" stroke-linejoin="round" stroke-miterlimit="10" d="
		M1756.8,185.9c0,0,4,6.9,16.8,6.9"/>
	<path fill="none" stroke="#FFFFFF" stroke-width="5" stroke-linecap="round" stroke-linejoin="round" stroke-miterlimit="10" d="
		M1678.3,159.2c0,0,4.9,5.9,13.3,7.4"/>
	<path fill="none" stroke="#FFFFFF" stroke-width="5" stroke-linecap="round" stroke-linejoin="round" stroke-miterlimit="10" d="
		M1676.3,150.8c0,0,9.9,6.9,16.8,9.9"/>
	<path fill="none" stroke="#FFFFFF" stroke-width="5" stroke-linecap="round" stroke-linejoin="round" stroke-miterlimit="10" d="
		M1674.8,140.9c0,0,11.4,3.5,13.3,6.4"/>
	<path fill="none" stroke="#FFFFFF" stroke-width="5" stroke-linecap="round" stroke-linejoin="round" stroke-miterlimit="10" d="
		M1584.9,198.2c0,0,6.9,4.9,11.9,5.4"/>
	<path fill="none" stroke="#FFFFFF" stroke-width="5" stroke-linecap="round" stroke-linejoin="round" stroke-miterlimit="10" d="
		M1590.8,193.8c0,0,5.4,3,11.4,3"/>
	<path fill="none" stroke="#FFFFFF" stroke-width="5" stroke-linecap="round" stroke-linejoin="round" stroke-miterlimit="10" d="
		M1635.4,125.9c0,0-2.3,22.1,7.1,20.1s18.9-9.5,18.9-9.5"/>
	<path fill="none" stroke="#FFFFFF" stroke-width="5" stroke-linecap="round" stroke-linejoin="round" stroke-miterlimit="10" d="
		M1727,29c0,0-0.7,11.1,2.2,16.5c3,5.4,11.9,6.9,17.3,2.5s15.3-19.6,15.3-19.6"/>
	<path fill="none" stroke="#FFFFFF" stroke-width="5" stroke-linecap="round" stroke-linejoin="round" stroke-miterlimit="10" d="
		M1811.1,46.1c0,0-5.4,14.7-2.4,23.6s12.8,5.9,17.8,3c4.9-3,14.3-14.3,14.3-14.3"/>
	<path fill="none" stroke="#FFFFFF" stroke-width="5" stroke-linecap="round" stroke-linejoin="round" stroke-miterlimit="10" d="
		M1880.4,261c0,0-6.4,23.7-3.5,32.6c3,8.9,12.8,4.4,12.8,4.4"/>
</g>
</svg>
