<?xml version="1.0" encoding="utf-8"?>
<!-- Generator: Adobe Illustrator 18.1.1, SVG Export Plug-In . SVG Version: 6.00 Build 0)  -->
<svg version="1.1" id="Layer_1" xmlns="http://www.w3.org/2000/svg" xmlns:xlink="http://www.w3.org/1999/xlink" x="0px" y="0px"
	 viewBox="-270.6 540 541.1 1080" enable-background="new -270.6 540 541.1 1080" xml:space="preserve">
<g id="Layer_1_1_">
</g>
<g id="Scn_x5F_Searching_x5F_B_x5F_v1_xA0_Image">
	<path fill="none" stroke="#FFFFFF" stroke-width="5" stroke-linecap="round" stroke-linejoin="round" stroke-miterlimit="10" d="
		M216.5,1620.1c-10.4-26.7-26-68.1-30.6-111.9c0,0-70.8-291.7-77.8-325.2s-25.1-49.6-22.3-97.5c2.8-47.9,12.6-211.6,7.8-232.9
		c-4.8-21.3-28.2-46.8-28.2-46.8s-1.2,21,1.5,42.2c0,0-3.4-61.3-5.6-74.5s-2.7-16.3-6.5-25.4c-4.9-11.9-20.5-53.1-25.5-67.5
		c-5.1-14.4-17.3-38.9-28.5-34.2c-11.3,4.7-14.4,24.4-5,49.5c6.8,18.2,10,43.5,12.2,58.2c2.3,14.8-1.1,22.2-1.7,32.2
		s-4.9,18.8-4.9,18.8s-16.5-25-21.9-52.4s-4.2-47.3-8.3-62.6c-4.1-15.3-32.2-48-39.8-72.5c-7.7-24.6-14.3-47-22.9-54.6
		c-8.6-7.5-14.3-11.9-23-1.4c-8.6,10.5-5.1,35.8,2.6,57.3s10,34.7,14.1,48.9c4.2,14.3,16.7,40.1,24.2,65.5
		c7.5,25.5,15.8,71.1,10.4,77.8s-25.1-32.5-29.3-46.8c-4.2-14.3-7.4-27.5-15.2-48c-7.8-20.5-26.3-46.6-33.3-64.1
		c-7-17.4-20.9-53.3-27.4-61.7c-6.5-8.4-19-16.1-27.2-11.6s2,33.2,1.8,53.2s24.1,66.5,24.4,77.6c0.3,11,2.5,26.2,17.5,60.1
		c15,34,28.1,65.8,26.5,93.7c-1.7,28-0.1,53.1-21.5,58.8s-51.1-48.9-53.4-65.8s-8.6-56.4-19.9-61s-14-10.4-14-10.4
		s-14.9-6.5-17.9,2.1c-3,8.5,7,36.5,7,36.5s-12,16.7-10.4,49.9c1.6,33.2,22,72.6,40,106.7s41.9,70.6,49.3,98.1
		c7.4,27.5,31.1,32.9,53.8,56.3c22.7,23.4,41.9,104.7,48.4,146.1c6.6,41.5,24.6,334.1,24.6,334.1"/>
	<path fill="none" stroke="#FFFFFF" stroke-width="5" stroke-linecap="round" stroke-linejoin="round" stroke-miterlimit="10" d="
		M-75.7,622.7c0,0-3.7,3.2-13.6,3.2"/>
	<path fill="none" stroke="#FFFFFF" stroke-width="5" stroke-linecap="round" stroke-linejoin="round" stroke-miterlimit="10" d="
		M-150.8,653.3c0,0-8.6,2.5-14,3.1"/>
	<path fill="none" stroke="#FFFFFF" stroke-width="5" stroke-linecap="round" stroke-linejoin="round" stroke-miterlimit="10" d="
		M-122.9,716.9c0,0-18.8,0.4-26.8,9.8"/>
	<path fill="none" stroke="#FFFFFF" stroke-width="5" stroke-linecap="round" stroke-linejoin="round" stroke-miterlimit="10" d="
		M-135.4,710.2c0,0-8.9-1-12.1,3.2"/>
	<path fill="none" stroke="#FFFFFF" stroke-width="5" stroke-linecap="round" stroke-linejoin="round" stroke-miterlimit="10" d="
		M-127.6,729c0,0-8.6,3.4-11.5,2.3"/>
	<path fill="none" stroke="#FFFFFF" stroke-width="5" stroke-linecap="round" stroke-linejoin="round" stroke-miterlimit="10" d="
		M-122.4,733.3c0,0-4.4,6.7-17.2,5.9"/>
	<path fill="none" stroke="#FFFFFF" stroke-width="5" stroke-linecap="round" stroke-linejoin="round" stroke-miterlimit="10" d="
		M-42.4,711.3c0,0-5.3,5.6-13.8,6.6"/>
	<path fill="none" stroke="#FFFFFF" stroke-width="5" stroke-linecap="round" stroke-linejoin="round" stroke-miterlimit="10" d="
		M-39.9,703c0,0-10.3,6.3-17.4,8.9"/>
	<path fill="none" stroke="#FFFFFF" stroke-width="5" stroke-linecap="round" stroke-linejoin="round" stroke-miterlimit="10" d="
		M-37.8,693.2c0,0-11.6,2.8-13.7,5.6"/>
	<path fill="none" stroke="#FFFFFF" stroke-width="5" stroke-linecap="round" stroke-linejoin="round" stroke-miterlimit="10" d="
		M48.6,755.8c0,0-7.2,4.5-12.2,4.7"/>
	<path fill="none" stroke="#FFFFFF" stroke-width="5" stroke-linecap="round" stroke-linejoin="round" stroke-miterlimit="10" d="
		M42.9,751c0,0-5.6,2.6-11.5,2.3"/>
	<path fill="none" stroke="#FFFFFF" stroke-width="5" stroke-linecap="round" stroke-linejoin="round" stroke-miterlimit="10" d="
		M21.5,663.3c0,0-2.4,22.1-11.2,18.1c-8.8-4-19.5-13.2-19.5-13.2"/>
	<path fill="none" stroke="#FFFFFF" stroke-width="5" stroke-linecap="round" stroke-linejoin="round" stroke-miterlimit="10" d="
		M-83.2,578.5c0,0,0.1,11.1-3.2,16.3c-3.3,5.2-12.2,6.2-17.4,1.4c-5.2-4.8-14.1-20.4-14.1-20.4"/>
	<path fill="none" stroke="#FFFFFF" stroke-width="5" stroke-linecap="round" stroke-linejoin="round" stroke-miterlimit="10" d="
		M-168.3,590.5c0,0,4.5,15,1,23.7s-13.2,5.2-17.9,1.9c-4.8-3.3-13.5-15.2-13.5-15.2"/>
	<path fill="none" stroke="#FFFFFF" stroke-width="5" stroke-linecap="round" stroke-linejoin="round" stroke-miterlimit="10" d="
		M-228.8,791.5c0,0,1,24.6-3.9,32.6s-13.5,1.5-13.5,1.5"/>
</g>
</svg>
